                                                                        S      1
,,17HPipeD0.025L2.5VOF,17HPipeD0.025L2.5VOF,7Hunknown,7Hunknown,32,38,7,G      1
99,15,,1.,6,1HM,1,0.08,15H20160902.090448,1D-5,10000.,7Hunknown,7HunknowG      2
n,11,0,;                                                                G      3
     186       1                                                00000000D      1
     186             -39       1       0                               0D      2
     514       2                                                00010000D      3
     514                       1       1                               0D      4
     510       3                                                00010000D      5
     510             -39       1       1                               0D      6
     510       4                                                00010000D      7
     510             -39       1       1                               0D      8
     510       5                                                00010000D      9
     510             -39       1       1                               0D     10
     508       6                                                00010000D     11
     508                       2       1                               0D     12
     508       8                                                00010000D     13
     508                       1       1                               0D     14
     508       9                                                00010000D     15
     508                       1       1                               0D     16
     126      10                                                00010000D     17
     126       0               7       0                               0D     18
     126      17                                                00010000D     19
     126       0               8       0                               0D     20
     126      25                                                00010000D     21
     126       0               2       0                               0D     22
     126      27                                                00010000D     23
     126       0               7       0                               0D     24
     126      34                                                00010000D     25
     126       0               9       0                               0D     26
     128      43                                                00010000D     27
     128       0     -39      15       0                               0D     28
     128      58                                                00010000D     29
     128       0     -39       5       0                               0D     30
     128      63                                                00010000D     31
     128       0     -39       4       0                               0D     32
     502      67                                                00010000D     33
     502                       2       1                               0D     34
     504      69                                                00010001D     35
     504                       2       1                               0D     36
     406      71                                                00000000D     37
     406                       1      15                               0D     38
     314      72                                                00000200D     39
     314                       2       0                               0D     40
186,3,1,0,0,1,37;                                                      1P      1
514,3,5,1,7,1,9,1;                                                     3P      2
510,27,1,1,11;                                                         5P      3
510,29,1,1,13;                                                         7P      4
510,31,1,1,15;                                                         9P      5
508,6,0,35,1,0,0,0,35,2,0,0,0,35,3,1,0,0,35,4,0,0,0,35,5,0,0,0,       11P      6
35,3,0,0;                                                             11P      7
508,2,0,35,4,1,0,0,35,5,1,0;                                          13P      8
508,2,0,35,1,1,0,0,35,2,1,0;                                          15P      9
126,4,2,0,0,0,0,0.,0.,0.,1.5707963267949,1.5707963267949,             17P     10
3.14159265358979,3.14159265358979,3.14159265358979,1.,                17P     11
0.707106781186547,1.,0.707106781186548,1.,2.5,0.,                     17P     12
-0.0124999999999994,2.5,0.0125,-0.0124999999999994,2.5,0.0125,        17P     13
5.54346108063111D-16,2.5,0.0125,0.0125000000000006,2.5,               17P     14
1.53080849893419D-18,0.0125000000000006,0.,3.14159265358979,0.,       17P     15
0.,0.;                                                                17P     16
126,4,2,0,0,0,0,3.14159265358979,3.14159265358979,                    19P     17
3.14159265358979,4.71238898038469,4.71238898038469,                   19P     18
6.28318530717959,6.28318530717959,6.28318530717959,1.,                19P     19
0.707106781186548,1.,0.707106781186548,1.,2.5,                        19P     20
1.53080849893419D-18,0.0125000000000006,2.5,-0.0125,                  19P     21
0.0125000000000006,2.5,-0.0125,5.5740772506098D-16,2.5,-0.0125,       19P     22
-0.0124999999999994,2.5,-3.06161699786838D-18,                        19P     23
-0.0124999999999994,3.14159265358979,6.28318530717959,0.,0.,0.;       19P     24
126,1,1,0,0,1,0,-100.,-100.,100.,100.,1.,1.,2.5,0.,                   21P     25
0.0125000000000006,0.,0.,0.0125,-100.,100.,0.,0.,0.;                  21P     26
126,4,2,0,0,0,0,0.,0.,0.,1.5707963267949,1.5707963267949,             23P     27
3.14159265358979,3.14159265358979,3.14159265358979,1.,                23P     28
0.707106781186547,1.,0.707106781186548,1.,2.77555756156289D-18,       23P     29
0.,-0.0125,2.77555756156289D-18,-0.0125,-0.0125,                      23P     30
1.69953884180861D-34,-0.0125,-7.65404249467096D-19,                   23P     31
-2.77555756156289D-18,-0.0125,0.0125,-2.77555756156289D-18,           23P     32
-1.53080849893419D-18,0.0125,0.,3.14159265358979,0.,0.,0.;            23P     33
126,4,2,0,0,0,0,3.14159265358979,3.14159265358979,                    25P     34
3.14159265358979,4.71238898038469,4.71238898038469,                   25P     35
6.28318530717959,6.28318530717959,6.28318530717959,1.,                25P     36
0.707106781186548,1.,0.707106781186548,1.,-2.77555756156289D-18,      25P     37
-1.53080849893419D-18,0.0125,-2.77555756156289D-18,0.0125,            25P     38
0.0125,-5.09861652542584D-34,0.0125,2.29621274840129D-18,             25P     39
2.77555756156289D-18,0.0125,-0.0125,2.77555756156289D-18,             25P     40
3.06161699786838D-18,-0.0125,3.14159265358979,6.28318530717959,       25P     41
0.,0.,0.;                                                             25P     42
128,1,8,1,2,0,1,0,0,1,-100.,-100.,100.,100.,-3.14159265358979,        27P     43
-3.14159265358979,-3.14159265358979,-1.5707963267949,                 27P     44
-1.5707963267949,0.,0.,1.5707963267949,1.5707963267949,               27P     45
3.14159265358979,3.14159265358979,3.14159265358979,1.,1.,             27P     46
0.707106781186548,0.707106781186548,1.,1.,0.707106781186548,          27P     47
0.707106781186548,1.,1.,0.707106781186548,0.707106781186548,1.,       27P     48
1.,0.707106781186548,0.707106781186548,1.,1.,2.5,0.,                  27P     49
0.0125000000000006,0.,0.,0.0125,2.5,-0.0125,0.0125000000000006,       27P     50
0.,-0.0125,0.0125,2.5,-0.0125,5.55111512312578D-16,0.,-0.0125,        27P     51
0.,2.5,-0.0125,-0.0124999999999994,0.,-0.0125,-0.0125,2.5,0.,         27P     52
-0.0124999999999994,0.,0.,-0.0125,2.5,0.0125,                         27P     53
-0.0124999999999994,0.,0.0125,-0.0125,2.5,0.0125,                     27P     54
5.55111512312578D-16,0.,0.0125,0.,2.5,0.0125,0.0125000000000006,      27P     55
0.,0.0125,0.0125,2.5,0.,0.0125000000000006,0.,0.,0.0125,-100.,        27P     56
100.,-3.14159265358979,3.14159265358979;                              27P     57
128,1,1,1,1,0,0,1,0,0,-1.251,-1.251,1.251,1.251,-1.251,-1.251,        29P     58
1.251,1.251,1.,1.,1.,1.,2.77777800761214D-18,-0.01251,-0.01251,       29P     59
-2.77777800761214D-18,-0.01251,0.01251,2.77777800761214D-18,          29P     60
0.01251,-0.01251,-2.77777800761214D-18,0.01251,0.01251,-1.251,        29P     61
1.251,-1.251,1.251;                                                   29P     62
128,1,1,1,1,0,0,1,0,0,-1.251,-1.251,1.251,1.251,-1.251,-1.251,        31P     63
1.251,1.251,1.,1.,1.,1.,2.5,-0.01251,0.0125100000000006,2.5,          31P     64
-0.01251,-0.0125099999999994,2.5,0.01251,0.0125100000000006,2.5,      31P     65
0.01251,-0.0125099999999994,-1.251,1.251,-1.251,1.251;                31P     66
502,4,2.5,0.,-0.0124999999999994,2.5,0.,0.0125000000000006,0.,        33P     67
0.,0.0125,0.,0.,-0.0125;                                              33P     68
504,5,17,33,1,33,2,19,33,2,33,1,21,33,2,33,3,23,33,4,33,3,25,33,      35P     69
3,33,4;                                                               35P     70
406,1,5HBody1;                                                        37P     71
314,62.7450980392157,62.7450980392157,62.7450980392157,13HSteel       39P     72
- Satin;                                                              39P     73
S      1G      3D     40P     73                                        T      1
